# xmcd
#
# Track frame offsets: 
#        183
#        21703
#        47878
#        73755
#        96440
#        112243
#        131615
#
# Disc length: 2071 seconds
#
# Revision: 3
# Processed by: cddbd v1.5.2PL0 Copyright (c) Steve Scherf et al.
# Submitted via: ExactAudioCopy v1.3
#
DISCID=6f081507,6f081607
DTITLE=Johnny Guitar Watson - Ain't That a Bitch
DYEAR=1976
DGENRE=Soul
TTITLE0=I Need it
TTITLE1=I Want to Ta-Ta You Baby
TTITLE2=Superman Lover
TTITLE3=Ain't That a Bitch
TTITLE4=Since I Met You Baby
TTITLE5=We're no Exception
TTITLE6=Won't You Forgive me Baby
EXTD=
EXTT0=
EXTT1=
EXTT2=
EXTT3=
EXTT4=
EXTT5=
EXTT6=
PLAYORDER=
